<?xml version="1.0" encoding="utf-8" standalone="no"?>
<!DOCTYPE svg PUBLIC "-//W3C//DTD SVG 1.1//EN"
  "http://www.w3.org/Graphics/SVG/1.1/DTD/svg11.dtd">
<svg xmlns:xlink="http://www.w3.org/1999/xlink" width="460.8pt" height="345.6pt" viewBox="0 0 460.8 345.6" xmlns="http://www.w3.org/2000/svg" version="1.1">
 <metadata>
  <rdf:RDF xmlns:dc="http://purl.org/dc/elements/1.1/" xmlns:cc="http://creativecommons.org/ns#" xmlns:rdf="http://www.w3.org/1999/02/22-rdf-syntax-ns#">
   <cc:Work>
    <dc:type rdf:resource="http://purl.org/dc/dcmitype/StillImage"/>
    <dc:date>2024-09-15T11:53:54.254000</dc:date>
    <dc:format>image/svg+xml</dc:format>
    <dc:creator>
     <cc:Agent>
      <dc:title>Matplotlib v3.5.2, https://matplotlib.org/</dc:title>
     </cc:Agent>
    </dc:creator>
   </cc:Work>
  </rdf:RDF>
 </metadata>
 <defs>
  <style type="text/css">*{stroke-linejoin: round; stroke-linecap: butt}</style>
 </defs>
 <g id="figure_1">
  <g id="patch_1">
   <path d="M 0 345.6 
L 460.8 345.6 
L 460.8 0 
L 0 0 
z
" style="fill: #ffffff"/>
  </g>
  <g id="axes_1">
   <g id="patch_2">
    <path d="M 57.6 307.584 
L 414.72 307.584 
L 414.72 41.472 
L 57.6 41.472 
z
" style="fill: #ffffff"/>
   </g>
   <g id="patch_3">
    <path d="M 263.182365 174.280492 
Q 294.642323 138.180199 297.57302 91.505089 
" clip-path="url(#pae9a9dede4)" style="fill: none; stroke: #000000; stroke-linecap: round"/>
    <path d="M 295.326287 95.371896 
L 297.57302 91.505089 
L 299.318425 95.622559 
L 295.326287 95.371896 
z
" clip-path="url(#pae9a9dede4)" style="stroke: #000000; stroke-linecap: round"/>
   </g>
   <g id="patch_4">
    <path d="M 256.325728 189.258166 
Q 252.125697 236.925579 277.193379 276.368098 
" clip-path="url(#pae9a9dede4)" style="fill: none; stroke: #000000; stroke-linecap: round"/>
    <path d="M 276.735778 271.919435 
L 277.193379 276.368098 
L 273.359888 274.064981 
L 276.735778 271.919435 
z
" clip-path="url(#pae9a9dede4)" style="stroke: #000000; stroke-linecap: round"/>
   </g>
   <g id="patch_5">
    <path d="M 163.669917 195.147633 
Q 122.360868 197.962028 91.758399 224.163163 
" clip-path="url(#pae9a9dede4)" style="fill: none; stroke: #000000; stroke-linecap: round"/>
    <path d="M 96.097611 223.080928 
L 91.758399 224.163163 
L 93.496138 220.042452 
L 96.097611 223.080928 
z
" clip-path="url(#pae9a9dede4)" style="stroke: #000000; stroke-linecap: round"/>
   </g>
   <g id="patch_6">
    <path d="M 177.107235 187.60699 
Q 210.380583 135.000281 203.546201 74.255318 
" clip-path="url(#pae9a9dede4)" style="fill: none; stroke: #000000; stroke-linecap: round"/>
    <path d="M 202.005957 78.453847 
L 203.546201 74.255318 
L 205.980878 78.006631 
L 202.005957 78.453847 
z
" clip-path="url(#pae9a9dede4)" style="stroke: #000000; stroke-linecap: round"/>
   </g>
   <g id="patch_7">
    <path d="M 253.009824 169.071545 
Q 288.172524 137.076427 296.442519 91.396047 
" clip-path="url(#pae9a9dede4)" style="fill: none; stroke: #000000; stroke-linecap: round"/>
    <path d="M 293.761932 94.975775 
L 296.442519 91.396047 
L 297.69795 95.688353 
L 293.761932 94.975775 
z
" clip-path="url(#pae9a9dede4)" style="stroke: #000000; stroke-linecap: round"/>
   </g>
   <g id="patch_8">
    <path d="M 238.49796 171.281737 
Q 172.004696 143.946015 104.311711 164.605433 
" clip-path="url(#pae9a9dede4)" style="fill: none; stroke: #000000; stroke-linecap: round"/>
    <path d="M 108.721307 165.350725 
L 104.311711 164.605433 
L 107.553702 161.524931 
L 108.721307 165.350725 
z
" clip-path="url(#pae9a9dede4)" style="stroke: #000000; stroke-linecap: round"/>
   </g>
   <g id="patch_9">
    <path d="M 261.208617 188.391004 
Q 286.457665 235.698154 334.474904 256.938516 
" clip-path="url(#pae9a9dede4)" style="fill: none; stroke-dasharray: 3.7,1.6; stroke-dashoffset: 0; stroke: #000000; stroke-linecap: round"/>
    <path d="M 331.625892 253.491323 
L 334.474904 256.938516 
L 330.007743 257.149409 
L 331.625892 253.491323 
z
" clip-path="url(#pae9a9dede4)" style="stroke-dasharray: 3.7,1.6; stroke-dashoffset: 0; stroke: #000000; stroke-linecap: round"/>
   </g>
   <g id="patch_10">
    <path d="M 251.788613 173.9855 
Q 205.559608 120.364347 136.933266 108.294121 
" clip-path="url(#pae9a9dede4)" style="fill: none; stroke-dasharray: 3.7,1.6; stroke-dashoffset: 0; stroke: #000000; stroke-linecap: round"/>
    <path d="M 140.526347 110.956783 
L 136.933266 108.294121 
L 141.219245 107.017253 
L 140.526347 110.956783 
z
" clip-path="url(#pae9a9dede4)" style="stroke-dasharray: 3.7,1.6; stroke-dashoffset: 0; stroke: #000000; stroke-linecap: round"/>
   </g>
   <g id="patch_11">
    <path d="M 167.353867 201.918049 
Q 147.138622 232.945353 148.962623 268.812922 
" clip-path="url(#pae9a9dede4)" style="fill: none; stroke-dasharray: 3.7,1.6; stroke-dashoffset: 0; stroke: #000000; stroke-linecap: round"/>
    <path d="M 150.75689 264.716508 
L 148.962623 268.812922 
L 146.762052 264.919661 
L 150.75689 264.716508 
z
" clip-path="url(#pae9a9dede4)" style="stroke-dasharray: 3.7,1.6; stroke-dashoffset: 0; stroke: #000000; stroke-linecap: round"/>
   </g>
   <g id="patch_12">
    <path d="M 174.111025 203.297821 
Q 184.046143 244.248762 215.6577 270.390885 
" clip-path="url(#pae9a9dede4)" style="fill: none; stroke-dasharray: 3.7,1.6; stroke-dashoffset: 0; stroke: #000000; stroke-linecap: round"/>
    <path d="M 213.849786 266.300476 
L 215.6577 270.390885 
L 211.300625 269.382971 
L 213.849786 266.300476 
z
" clip-path="url(#pae9a9dede4)" style="stroke-dasharray: 3.7,1.6; stroke-dashoffset: 0; stroke: #000000; stroke-linecap: round"/>
   </g>
   <g id="patch_13">
    <path d="M 241.725074 181.985305 
Q 217.485695 221.618252 222.119902 266.720373 
" clip-path="url(#pae9a9dede4)" style="fill: none; stroke-dasharray: 3.7,1.6; stroke-dashoffset: 0; stroke: #000000; stroke-linecap: round"/>
    <path d="M 223.700583 262.5369 
L 222.119902 266.720373 
L 219.721532 262.945744 
L 223.700583 262.5369 
z
" clip-path="url(#pae9a9dede4)" style="stroke-dasharray: 3.7,1.6; stroke-dashoffset: 0; stroke: #000000; stroke-linecap: round"/>
   </g>
   <g id="patch_14">
    <path d="M 254.593236 177.667998 
Q 316.348222 198.546377 376.46022 176.373832 
" clip-path="url(#pae9a9dede4)" style="fill: none; stroke-dasharray: 3.7,1.6; stroke-dashoffset: 0; stroke: #000000; stroke-linecap: round"/>
    <path d="M 372.015249 175.881661 
L 376.46022 176.373832 
L 373.399501 179.634506 
L 372.015249 175.881661 
z
" clip-path="url(#pae9a9dede4)" style="stroke-dasharray: 3.7,1.6; stroke-dashoffset: 0; stroke: #000000; stroke-linecap: round"/>
   </g>
   <g id="matplotlib.axis_1">
    <g id="xtick_1"/>
    <g id="xtick_2"/>
    <g id="xtick_3"/>
    <g id="xtick_4"/>
    <g id="xtick_5"/>
    <g id="xtick_6"/>
    <g id="xtick_7"/>
    <g id="xtick_8"/>
   </g>
   <g id="matplotlib.axis_2">
    <g id="ytick_1"/>
    <g id="ytick_2"/>
    <g id="ytick_3"/>
    <g id="ytick_4"/>
    <g id="ytick_5"/>
    <g id="ytick_6"/>
    <g id="ytick_7"/>
    <g id="ytick_8"/>
   </g>
   <g id="PathCollection_1">
    <defs>
     <path id="mc82feaa6bd" d="M 0 8.660254 
C 2.296726 8.660254 4.499694 7.747755 6.123724 6.123724 
C 7.747755 4.499694 8.660254 2.296726 8.660254 0 
C 8.660254 -2.296726 7.747755 -4.499694 6.123724 -6.123724 
C 4.499694 -7.747755 2.296726 -8.660254 0 -8.660254 
C -2.296726 -8.660254 -4.499694 -7.747755 -6.123724 -6.123724 
C -7.747755 -4.499694 -8.660254 -2.296726 -8.660254 0 
C -8.660254 2.296726 -7.747755 4.499694 -6.123724 6.123724 
C -4.499694 7.747755 -2.296726 8.660254 0 8.660254 
z
" style="stroke: #ffff00"/>
    </defs>
    <g clip-path="url(#pae9a9dede4)">
     <use xlink:href="#mc82feaa6bd" x="257.318795" y="180.653202" style="fill: #ffff00; stroke: #ffff00"/>
     <use xlink:href="#mc82feaa6bd" x="297.952292" y="81.736847" style="fill: #ffff00; stroke: #ffff00"/>
     <use xlink:href="#mc82feaa6bd" x="282.633318" y="284.491636" style="fill: #ffff00; stroke: #ffff00"/>
     <use xlink:href="#mc82feaa6bd" x="343.502296" y="260.700128" style="fill: #ffff00; stroke: #ffff00"/>
     <use xlink:href="#mc82feaa6bd" x="127.271811" y="106.762783" style="fill: #ffff00; stroke: #ffff00"/>
     <use xlink:href="#mc82feaa6bd" x="172.323473" y="194.82339" style="fill: #ffff00; stroke: #ffff00"/>
     <use xlink:href="#mc82feaa6bd" x="84.505087" y="230.721906" style="fill: #ffff00; stroke: #ffff00"/>
     <use xlink:href="#mc82feaa6bd" x="202.269294" y="64.564364" style="fill: #ffff00; stroke: #ffff00"/>
     <use xlink:href="#mc82feaa6bd" x="149.749364" y="278.558524" style="fill: #ffff00; stroke: #ffff00"/>
     <use xlink:href="#mc82feaa6bd" x="223.357749" y="276.420068" style="fill: #ffff00; stroke: #ffff00"/>
     <use xlink:href="#mc82feaa6bd" x="246.446273" y="174.725635" style="fill: #ffff00; stroke: #ffff00"/>
     <use xlink:href="#mc82feaa6bd" x="95.010086" y="167.614554" style="fill: #ffff00; stroke: #ffff00"/>
     <use xlink:href="#mc82feaa6bd" x="385.572251" y="172.823011" style="fill: #ffff00; stroke: #ffff00"/>
    </g>
   </g>
   <g id="patch_15">
    <path d="M 57.6 307.584 
L 57.6 41.472 
" style="fill: none; stroke: #000000; stroke-width: 0.8; stroke-linejoin: miter; stroke-linecap: square"/>
   </g>
   <g id="patch_16">
    <path d="M 414.72 307.584 
L 414.72 41.472 
" style="fill: none; stroke: #000000; stroke-width: 0.8; stroke-linejoin: miter; stroke-linecap: square"/>
   </g>
   <g id="patch_17">
    <path d="M 57.6 307.584 
L 414.72 307.584 
" style="fill: none; stroke: #000000; stroke-width: 0.8; stroke-linejoin: miter; stroke-linecap: square"/>
   </g>
   <g id="patch_18">
    <path d="M 57.6 41.472 
L 414.72 41.472 
" style="fill: none; stroke: #000000; stroke-width: 0.8; stroke-linejoin: miter; stroke-linecap: square"/>
   </g>
   <g id="text_1">
    <g clip-path="url(#pae9a9dede4)">
     <!-- гнсс -->
     <g transform="translate(245.924264 183.412577)scale(0.1 -0.1)">
      <defs>
       <path id="DejaVuSans-433" d="M 581 0 
L 581 3500 
L 3050 3500 
L 3050 3041 
L 1159 3041 
L 1159 0 
L 581 0 
z
" transform="scale(0.015625)"/>
       <path id="DejaVuSans-43d" d="M 581 3500 
L 1159 3500 
L 1159 2072 
L 3025 2072 
L 3025 3500 
L 3603 3500 
L 3603 0 
L 3025 0 
L 3025 1613 
L 1159 1613 
L 1159 0 
L 581 0 
L 581 3500 
z
" transform="scale(0.015625)"/>
       <path id="DejaVuSans-441" d="M 3122 3366 
L 3122 2828 
Q 2878 2963 2633 3030 
Q 2388 3097 2138 3097 
Q 1578 3097 1268 2742 
Q 959 2388 959 1747 
Q 959 1106 1268 751 
Q 1578 397 2138 397 
Q 2388 397 2633 464 
Q 2878 531 3122 666 
L 3122 134 
Q 2881 22 2623 -34 
Q 2366 -91 2075 -91 
Q 1284 -91 818 406 
Q 353 903 353 1747 
Q 353 2603 823 3093 
Q 1294 3584 2113 3584 
Q 2378 3584 2631 3529 
Q 2884 3475 3122 3366 
z
" transform="scale(0.015625)"/>
      </defs>
      <use xlink:href="#DejaVuSans-433"/>
      <use xlink:href="#DejaVuSans-43d" x="52.539062"/>
      <use xlink:href="#DejaVuSans-441" x="117.919922"/>
      <use xlink:href="#DejaVuSans-441" x="172.900391"/>
     </g>
    </g>
   </g>
   <g id="text_2">
    <g clip-path="url(#pae9a9dede4)">
     <!-- швидкість -->
     <g transform="translate(270.706198 84.496222)scale(0.1 -0.1)">
      <defs>
       <path id="DejaVuSans-448" d="M 3216 459 
L 4697 459 
L 4697 3500 
L 5275 3500 
L 5275 0 
L 581 0 
L 581 3500 
L 1159 3500 
L 1159 459 
L 2638 459 
L 2638 3500 
L 3216 3500 
L 3216 459 
z
" transform="scale(0.015625)"/>
       <path id="DejaVuSans-432" d="M 1156 1613 
L 1156 459 
L 1975 459 
Q 2369 459 2575 607 
Q 2781 756 2781 1038 
Q 2781 1319 2575 1466 
Q 2369 1613 1975 1613 
L 1156 1613 
z
M 1156 3041 
L 1156 2072 
L 1913 2072 
Q 2238 2072 2444 2201 
Q 2650 2331 2650 2563 
Q 2650 2794 2444 2917 
Q 2238 3041 1913 3041 
L 1156 3041 
z
M 581 3500 
L 1950 3500 
Q 2566 3500 2897 3275 
Q 3228 3050 3228 2634 
Q 3228 2313 3059 2123 
Q 2891 1934 2559 1888 
Q 2956 1813 3175 1575 
Q 3394 1338 3394 981 
Q 3394 513 3033 256 
Q 2672 0 2003 0 
L 581 0 
L 581 3500 
z
" transform="scale(0.015625)"/>
       <path id="DejaVuSans-438" d="M 3578 3500 
L 3578 0 
L 3006 0 
L 3006 2809 
L 1319 0 
L 581 0 
L 581 3500 
L 1153 3500 
L 1153 697 
L 2838 3500 
L 3578 3500 
z
" transform="scale(0.015625)"/>
       <path id="DejaVuSans-434" d="M 1384 459 
L 3053 459 
L 3053 3041 
L 1844 3041 
L 1844 2603 
Q 1844 1316 1475 628 
L 1384 459 
z
M 550 459 
Q 834 584 959 850 
Q 1266 1509 1266 2838 
L 1266 3500 
L 3631 3500 
L 3631 459 
L 4091 459 
L 4091 -884 
L 3631 -884 
L 3631 0 
L 794 0 
L 794 -884 
L 334 -884 
L 334 459 
L 550 459 
z
" transform="scale(0.015625)"/>
       <path id="DejaVuSans-43a" d="M 581 3500 
L 1153 3500 
L 1153 1856 
L 2775 3500 
L 3481 3500 
L 2144 2147 
L 3653 0 
L 3009 0 
L 1769 1766 
L 1153 1141 
L 1153 0 
L 581 0 
L 581 3500 
z
" transform="scale(0.015625)"/>
       <path id="DejaVuSans-456" d="M 603 3500 
L 1178 3500 
L 1178 0 
L 603 0 
L 603 3500 
z
M 603 4863 
L 1178 4863 
L 1178 4134 
L 603 4134 
L 603 4863 
z
" transform="scale(0.015625)"/>
       <path id="DejaVuSans-442" d="M 188 3500 
L 3541 3500 
L 3541 3041 
L 2147 3041 
L 2147 0 
L 1581 0 
L 1581 3041 
L 188 3041 
L 188 3500 
z
" transform="scale(0.015625)"/>
       <path id="DejaVuSans-44c" d="M 2781 1038 
Q 2781 1319 2576 1466 
Q 2372 1613 1978 1613 
L 1159 1613 
L 1159 459 
L 1978 459 
Q 2372 459 2576 607 
Q 2781 756 2781 1038 
z
M 581 3500 
L 1159 3500 
L 1159 2072 
L 2003 2072 
Q 2672 2072 3033 1817 
Q 3394 1563 3394 1038 
Q 3394 513 3033 256 
Q 2672 0 2003 0 
L 581 0 
L 581 3500 
z
" transform="scale(0.015625)"/>
      </defs>
      <use xlink:href="#DejaVuSans-448"/>
      <use xlink:href="#DejaVuSans-432" x="91.503906"/>
      <use xlink:href="#DejaVuSans-438" x="150.439453"/>
      <use xlink:href="#DejaVuSans-434" x="215.429688"/>
      <use xlink:href="#DejaVuSans-43a" x="284.570312"/>
      <use xlink:href="#DejaVuSans-456" x="344.970703"/>
      <use xlink:href="#DejaVuSans-441" x="372.753906"/>
      <use xlink:href="#DejaVuSans-442" x="427.734375"/>
      <use xlink:href="#DejaVuSans-44c" x="485.986328"/>
     </g>
    </g>
   </g>
   <g id="text_3">
    <g clip-path="url(#pae9a9dede4)">
     <!-- дешевизна -->
     <g transform="translate(253.260662 287.251011)scale(0.1 -0.1)">
      <defs>
       <path id="DejaVuSans-435" d="M 3597 1894 
L 3597 1613 
L 953 1613 
Q 991 1019 1311 708 
Q 1631 397 2203 397 
Q 2534 397 2845 478 
Q 3156 559 3463 722 
L 3463 178 
Q 3153 47 2828 -22 
Q 2503 -91 2169 -91 
Q 1331 -91 842 396 
Q 353 884 353 1716 
Q 353 2575 817 3079 
Q 1281 3584 2069 3584 
Q 2775 3584 3186 3129 
Q 3597 2675 3597 1894 
z
M 3022 2063 
Q 3016 2534 2758 2815 
Q 2500 3097 2075 3097 
Q 1594 3097 1305 2825 
Q 1016 2553 972 2059 
L 3022 2063 
z
" transform="scale(0.015625)"/>
       <path id="DejaVuSans-437" d="M 2206 1888 
Q 2594 1813 2809 1584 
Q 3025 1356 3025 1019 
Q 3025 478 2622 193 
Q 2219 -91 1475 -91 
Q 1225 -91 961 -47 
Q 697 -3 416 84 
L 416 619 
Q 638 503 903 445 
Q 1169 388 1459 388 
Q 1931 388 2195 563 
Q 2459 738 2459 1019 
Q 2459 1294 2225 1461 
Q 1991 1628 1563 1628 
L 1100 1628 
L 1100 2103 
L 1584 2103 
Q 1947 2103 2158 2242 
Q 2369 2381 2369 2600 
Q 2369 2800 2151 2944 
Q 1934 3088 1563 3088 
Q 1341 3088 1089 3047 
Q 838 3006 534 2916 
L 534 3438 
Q 841 3513 1106 3550 
Q 1372 3588 1609 3588 
Q 2222 3588 2576 3342 
Q 2931 3097 2931 2656 
Q 2931 2366 2743 2164 
Q 2556 1963 2206 1888 
z
" transform="scale(0.015625)"/>
       <path id="DejaVuSans-430" d="M 2194 1759 
Q 1497 1759 1228 1600 
Q 959 1441 959 1056 
Q 959 750 1161 570 
Q 1363 391 1709 391 
Q 2188 391 2477 730 
Q 2766 1069 2766 1631 
L 2766 1759 
L 2194 1759 
z
M 3341 1997 
L 3341 0 
L 2766 0 
L 2766 531 
Q 2569 213 2275 61 
Q 1981 -91 1556 -91 
Q 1019 -91 701 211 
Q 384 513 384 1019 
Q 384 1609 779 1909 
Q 1175 2209 1959 2209 
L 2766 2209 
L 2766 2266 
Q 2766 2663 2505 2880 
Q 2244 3097 1772 3097 
Q 1472 3097 1187 3025 
Q 903 2953 641 2809 
L 641 3341 
Q 956 3463 1253 3523 
Q 1550 3584 1831 3584 
Q 2591 3584 2966 3190 
Q 3341 2797 3341 1997 
z
" transform="scale(0.015625)"/>
      </defs>
      <use xlink:href="#DejaVuSans-434"/>
      <use xlink:href="#DejaVuSans-435" x="69.140625"/>
      <use xlink:href="#DejaVuSans-448" x="130.664062"/>
      <use xlink:href="#DejaVuSans-435" x="222.167969"/>
      <use xlink:href="#DejaVuSans-432" x="283.691406"/>
      <use xlink:href="#DejaVuSans-438" x="342.626953"/>
      <use xlink:href="#DejaVuSans-437" x="407.617188"/>
      <use xlink:href="#DejaVuSans-43d" x="460.791016"/>
      <use xlink:href="#DejaVuSans-430" x="526.171875"/>
     </g>
    </g>
   </g>
   <g id="text_4">
    <g clip-path="url(#pae9a9dede4)">
     <!-- неточність -->
     <g transform="translate(314.964796 263.459503)scale(0.1 -0.1)">
      <defs>
       <path id="DejaVuSans-43e" d="M 1959 3097 
Q 1497 3097 1228 2736 
Q 959 2375 959 1747 
Q 959 1119 1226 758 
Q 1494 397 1959 397 
Q 2419 397 2687 759 
Q 2956 1122 2956 1747 
Q 2956 2369 2687 2733 
Q 2419 3097 1959 3097 
z
M 1959 3584 
Q 2709 3584 3137 3096 
Q 3566 2609 3566 1747 
Q 3566 888 3137 398 
Q 2709 -91 1959 -91 
Q 1206 -91 779 398 
Q 353 888 353 1747 
Q 353 2609 779 3096 
Q 1206 3584 1959 3584 
z
" transform="scale(0.015625)"/>
       <path id="DejaVuSans-447" d="M 2625 0 
L 2625 1472 
L 1553 1472 
Q 1075 1472 756 1769 
Q 469 2038 469 2613 
L 469 3500 
L 1044 3500 
L 1044 2666 
Q 1044 2300 1206 2116 
Q 1372 1931 1697 1931 
L 2625 1931 
L 2625 3500 
L 3200 3500 
L 3200 0 
L 2625 0 
z
" transform="scale(0.015625)"/>
      </defs>
      <use xlink:href="#DejaVuSans-43d"/>
      <use xlink:href="#DejaVuSans-435" x="65.380859"/>
      <use xlink:href="#DejaVuSans-442" x="126.904297"/>
      <use xlink:href="#DejaVuSans-43e" x="185.15625"/>
      <use xlink:href="#DejaVuSans-447" x="246.337891"/>
      <use xlink:href="#DejaVuSans-43d" x="305.419922"/>
      <use xlink:href="#DejaVuSans-456" x="370.800781"/>
      <use xlink:href="#DejaVuSans-441" x="398.583984"/>
      <use xlink:href="#DejaVuSans-442" x="453.564453"/>
      <use xlink:href="#DejaVuSans-44c" x="511.816406"/>
     </g>
    </g>
   </g>
   <g id="text_5">
    <g clip-path="url(#pae9a9dede4)">
     <!-- залежність від звязку -->
     <g transform="translate(69.282749 109.522158)scale(0.1 -0.1)">
      <defs>
       <path id="DejaVuSans-43b" d="M 238 0 
L 238 478 
Q 806 566 981 959 
Q 1194 1513 1194 2928 
L 1194 3500 
L 3559 3500 
L 3559 0 
L 2984 0 
L 2984 3041 
L 1769 3041 
L 1769 2694 
Q 1769 1344 1494 738 
Q 1200 91 238 0 
z
" transform="scale(0.015625)"/>
       <path id="DejaVuSans-436" d="M 2597 3500 
L 3169 3500 
L 3169 1856 
L 4697 3500 
L 5366 3500 
L 4109 2153 
L 5547 0 
L 4931 0 
L 3753 1769 
L 3169 1141 
L 3169 0 
L 2597 0 
L 2597 1141 
L 2013 1769 
L 834 0 
L 219 0 
L 1656 2153 
L 400 3500 
L 1069 3500 
L 2597 1856 
L 2597 3500 
z
" transform="scale(0.015625)"/>
       <path id="DejaVuSans-20" transform="scale(0.015625)"/>
       <path id="DejaVuSans-44f" d="M 1181 2491 
Q 1181 2231 1381 2084 
Q 1581 1938 1953 1938 
L 2728 1938 
L 2728 3041 
L 1953 3041 
Q 1581 3041 1381 2897 
Q 1181 2753 1181 2491 
z
M 363 0 
L 1431 1534 
Q 1069 1616 828 1830 
Q 588 2044 588 2491 
Q 588 2997 923 3248 
Q 1259 3500 1938 3500 
L 3306 3500 
L 3306 0 
L 2728 0 
L 2728 1478 
L 2013 1478 
L 981 0 
L 363 0 
z
" transform="scale(0.015625)"/>
       <path id="DejaVuSans-443" d="M 2059 -325 
Q 1816 -950 1584 -1140 
Q 1353 -1331 966 -1331 
L 506 -1331 
L 506 -850 
L 844 -850 
Q 1081 -850 1212 -737 
Q 1344 -625 1503 -206 
L 1606 56 
L 191 3500 
L 800 3500 
L 1894 763 
L 2988 3500 
L 3597 3500 
L 2059 -325 
z
" transform="scale(0.015625)"/>
      </defs>
      <use xlink:href="#DejaVuSans-437"/>
      <use xlink:href="#DejaVuSans-430" x="53.173828"/>
      <use xlink:href="#DejaVuSans-43b" x="114.453125"/>
      <use xlink:href="#DejaVuSans-435" x="178.369141"/>
      <use xlink:href="#DejaVuSans-436" x="239.892578"/>
      <use xlink:href="#DejaVuSans-43d" x="329.980469"/>
      <use xlink:href="#DejaVuSans-456" x="395.361328"/>
      <use xlink:href="#DejaVuSans-441" x="423.144531"/>
      <use xlink:href="#DejaVuSans-442" x="478.125"/>
      <use xlink:href="#DejaVuSans-44c" x="536.376953"/>
      <use xlink:href="#DejaVuSans-20" x="595.3125"/>
      <use xlink:href="#DejaVuSans-432" x="627.099609"/>
      <use xlink:href="#DejaVuSans-456" x="686.035156"/>
      <use xlink:href="#DejaVuSans-434" x="713.818359"/>
      <use xlink:href="#DejaVuSans-20" x="782.958984"/>
      <use xlink:href="#DejaVuSans-437" x="814.746094"/>
      <use xlink:href="#DejaVuSans-432" x="867.919922"/>
      <use xlink:href="#DejaVuSans-44f" x="926.855469"/>
      <use xlink:href="#DejaVuSans-437" x="987.011719"/>
      <use xlink:href="#DejaVuSans-43a" x="1040.185547"/>
      <use xlink:href="#DejaVuSans-443" x="1100.585938"/>
     </g>
    </g>
   </g>
   <g id="text_6">
    <g clip-path="url(#pae9a9dede4)">
     <!-- тахеометр -->
     <g transform="translate(144.316441 197.582765)scale(0.1 -0.1)">
      <defs>
       <path id="DejaVuSans-445" d="M 3513 3500 
L 2247 1797 
L 3578 0 
L 2900 0 
L 1881 1375 
L 863 0 
L 184 0 
L 1544 1831 
L 300 3500 
L 978 3500 
L 1906 2253 
L 2834 3500 
L 3513 3500 
z
" transform="scale(0.015625)"/>
       <path id="DejaVuSans-43c" d="M 581 3500 
L 1422 3500 
L 2416 1156 
L 3413 3500 
L 4247 3500 
L 4247 0 
L 3669 0 
L 3669 2950 
L 2703 672 
L 2128 672 
L 1159 2950 
L 1159 0 
L 581 0 
L 581 3500 
z
" transform="scale(0.015625)"/>
       <path id="DejaVuSans-440" d="M 1159 525 
L 1159 -1331 
L 581 -1331 
L 581 3500 
L 1159 3500 
L 1159 2969 
Q 1341 3281 1617 3432 
Q 1894 3584 2278 3584 
Q 2916 3584 3314 3078 
Q 3713 2572 3713 1747 
Q 3713 922 3314 415 
Q 2916 -91 2278 -91 
Q 1894 -91 1617 61 
Q 1341 213 1159 525 
z
M 3116 1747 
Q 3116 2381 2855 2742 
Q 2594 3103 2138 3103 
Q 1681 3103 1420 2742 
Q 1159 2381 1159 1747 
Q 1159 1113 1420 752 
Q 1681 391 2138 391 
Q 2594 391 2855 752 
Q 3116 1113 3116 1747 
z
" transform="scale(0.015625)"/>
      </defs>
      <use xlink:href="#DejaVuSans-442"/>
      <use xlink:href="#DejaVuSans-430" x="58.251953"/>
      <use xlink:href="#DejaVuSans-445" x="119.53125"/>
      <use xlink:href="#DejaVuSans-435" x="178.710938"/>
      <use xlink:href="#DejaVuSans-43e" x="240.234375"/>
      <use xlink:href="#DejaVuSans-43c" x="301.416016"/>
      <use xlink:href="#DejaVuSans-435" x="376.855469"/>
      <use xlink:href="#DejaVuSans-442" x="438.378906"/>
      <use xlink:href="#DejaVuSans-440" x="496.630859"/>
     </g>
    </g>
   </g>
   <g id="text_7">
    <g clip-path="url(#pae9a9dede4)">
     <!-- точність -->
     <g transform="translate(62.3129 233.481281)scale(0.1 -0.1)">
      <use xlink:href="#DejaVuSans-442"/>
      <use xlink:href="#DejaVuSans-43e" x="58.251953"/>
      <use xlink:href="#DejaVuSans-447" x="119.433594"/>
      <use xlink:href="#DejaVuSans-43d" x="178.515625"/>
      <use xlink:href="#DejaVuSans-456" x="243.896484"/>
      <use xlink:href="#DejaVuSans-441" x="271.679688"/>
      <use xlink:href="#DejaVuSans-442" x="326.660156"/>
      <use xlink:href="#DejaVuSans-44c" x="384.912109"/>
     </g>
    </g>
   </g>
   <g id="text_8">
    <g clip-path="url(#pae9a9dede4)">
     <!-- автономність -->
     <g transform="translate(166.920075 67.323739)scale(0.1 -0.1)">
      <use xlink:href="#DejaVuSans-430"/>
      <use xlink:href="#DejaVuSans-432" x="61.279297"/>
      <use xlink:href="#DejaVuSans-442" x="120.214844"/>
      <use xlink:href="#DejaVuSans-43e" x="178.466797"/>
      <use xlink:href="#DejaVuSans-43d" x="239.648438"/>
      <use xlink:href="#DejaVuSans-43e" x="305.029297"/>
      <use xlink:href="#DejaVuSans-43c" x="366.210938"/>
      <use xlink:href="#DejaVuSans-43d" x="441.650391"/>
      <use xlink:href="#DejaVuSans-456" x="507.03125"/>
      <use xlink:href="#DejaVuSans-441" x="534.814453"/>
      <use xlink:href="#DejaVuSans-442" x="589.794922"/>
      <use xlink:href="#DejaVuSans-44c" x="648.046875"/>
     </g>
    </g>
   </g>
   <g id="text_9">
    <g clip-path="url(#pae9a9dede4)">
     <!-- часозатратність -->
     <g transform="translate(106.870458 281.317899)scale(0.1 -0.1)">
      <use xlink:href="#DejaVuSans-447"/>
      <use xlink:href="#DejaVuSans-430" x="59.082031"/>
      <use xlink:href="#DejaVuSans-441" x="120.361328"/>
      <use xlink:href="#DejaVuSans-43e" x="175.341797"/>
      <use xlink:href="#DejaVuSans-437" x="236.523438"/>
      <use xlink:href="#DejaVuSans-430" x="289.697266"/>
      <use xlink:href="#DejaVuSans-442" x="350.976562"/>
      <use xlink:href="#DejaVuSans-440" x="409.228516"/>
      <use xlink:href="#DejaVuSans-430" x="472.705078"/>
      <use xlink:href="#DejaVuSans-442" x="533.984375"/>
      <use xlink:href="#DejaVuSans-43d" x="592.236328"/>
      <use xlink:href="#DejaVuSans-456" x="657.617188"/>
      <use xlink:href="#DejaVuSans-441" x="685.400391"/>
      <use xlink:href="#DejaVuSans-442" x="740.380859"/>
      <use xlink:href="#DejaVuSans-44c" x="798.632812"/>
     </g>
    </g>
   </g>
   <g id="text_10">
    <g clip-path="url(#pae9a9dede4)">
     <!-- дороговизна -->
     <g transform="translate(189.73353 279.179443)scale(0.1 -0.1)">
      <use xlink:href="#DejaVuSans-434"/>
      <use xlink:href="#DejaVuSans-43e" x="69.140625"/>
      <use xlink:href="#DejaVuSans-440" x="130.322266"/>
      <use xlink:href="#DejaVuSans-43e" x="193.798828"/>
      <use xlink:href="#DejaVuSans-433" x="254.980469"/>
      <use xlink:href="#DejaVuSans-43e" x="307.519531"/>
      <use xlink:href="#DejaVuSans-432" x="368.701172"/>
      <use xlink:href="#DejaVuSans-438" x="427.636719"/>
      <use xlink:href="#DejaVuSans-437" x="492.626953"/>
      <use xlink:href="#DejaVuSans-43d" x="545.800781"/>
      <use xlink:href="#DejaVuSans-430" x="611.181641"/>
     </g>
    </g>
   </g>
   <g id="text_11">
    <g clip-path="url(#pae9a9dede4)">
     <!-- лідар -->
     <g transform="translate(232.165804 177.48501)scale(0.1 -0.1)">
      <use xlink:href="#DejaVuSans-43b"/>
      <use xlink:href="#DejaVuSans-456" x="63.916016"/>
      <use xlink:href="#DejaVuSans-434" x="91.699219"/>
      <use xlink:href="#DejaVuSans-430" x="160.839844"/>
      <use xlink:href="#DejaVuSans-440" x="222.119141"/>
     </g>
    </g>
   </g>
   <g id="text_12">
    <g clip-path="url(#pae9a9dede4)">
     <!-- точніть -->
     <g transform="translate(75.567117 170.373929)scale(0.1 -0.1)">
      <use xlink:href="#DejaVuSans-442"/>
      <use xlink:href="#DejaVuSans-43e" x="58.251953"/>
      <use xlink:href="#DejaVuSans-447" x="119.433594"/>
      <use xlink:href="#DejaVuSans-43d" x="178.515625"/>
      <use xlink:href="#DejaVuSans-456" x="243.896484"/>
      <use xlink:href="#DejaVuSans-442" x="271.679688"/>
      <use xlink:href="#DejaVuSans-44c" x="329.931641"/>
     </g>
    </g>
   </g>
   <g id="text_13">
    <g clip-path="url(#pae9a9dede4)">
     <!-- опрацювання -->
     <g transform="translate(349.837095 175.582386)scale(0.1 -0.1)">
      <defs>
       <path id="DejaVuSans-43f" d="M 3603 3500 
L 3603 0 
L 3025 0 
L 3025 3041 
L 1159 3041 
L 1159 0 
L 581 0 
L 581 3500 
L 3603 3500 
z
" transform="scale(0.015625)"/>
       <path id="DejaVuSans-446" d="M 3603 0 
L 581 0 
L 581 3500 
L 1159 3500 
L 1159 459 
L 3025 459 
L 3025 3500 
L 3603 3500 
L 3603 459 
L 4063 459 
L 4063 -884 
L 3603 -884 
L 3603 0 
z
" transform="scale(0.015625)"/>
       <path id="DejaVuSans-44e" d="M 3431 3097 
Q 2969 3097 2700 2736 
Q 2431 2375 2431 1747 
Q 2431 1119 2698 758 
Q 2966 397 3431 397 
Q 3891 397 4159 759 
Q 4428 1122 4428 1747 
Q 4428 2369 4159 2733 
Q 3891 3097 3431 3097 
z
M 1844 2103 
Q 1903 2697 2292 3140 
Q 2681 3584 3431 3584 
Q 4181 3584 4609 3096 
Q 5038 2609 5038 1747 
Q 5038 888 4609 398 
Q 4181 -91 3431 -91 
Q 2678 -91 2267 381 
Q 1856 853 1828 1628 
L 1178 1628 
L 1178 0 
L 603 0 
L 603 3500 
L 1178 3500 
L 1178 2103 
L 1844 2103 
z
" transform="scale(0.015625)"/>
      </defs>
      <use xlink:href="#DejaVuSans-43e"/>
      <use xlink:href="#DejaVuSans-43f" x="61.181641"/>
      <use xlink:href="#DejaVuSans-440" x="126.5625"/>
      <use xlink:href="#DejaVuSans-430" x="190.039062"/>
      <use xlink:href="#DejaVuSans-446" x="251.318359"/>
      <use xlink:href="#DejaVuSans-44e" x="319.384766"/>
      <use xlink:href="#DejaVuSans-432" x="403.564453"/>
      <use xlink:href="#DejaVuSans-430" x="462.5"/>
      <use xlink:href="#DejaVuSans-43d" x="523.779297"/>
      <use xlink:href="#DejaVuSans-43d" x="589.160156"/>
      <use xlink:href="#DejaVuSans-44f" x="654.541016"/>
     </g>
    </g>
   </g>
  </g>
 </g>
 <defs>
  <clipPath id="pae9a9dede4">
   <rect x="57.6" y="41.472" width="357.12" height="266.112"/>
  </clipPath>
 </defs>
</svg>
